<?xml version="1.0" encoding="UTF-8"?><svg id="a" xmlns="http://www.w3.org/2000/svg" viewBox="0 0 2893.32 468.16"><path d="M77.32,283.91c3.82-1.28,3.92-4.87,5.06-7.94,15.98-43.08,36.53-93.85,74.23-121.89,13.18,6.16,11.96,31.57,9.82,43.94-1.41,8.16-17.1,41.69-24.57,43.63-3.57.92-7.38-2.61-9.5.17-1.03,2.35-6.22,13.9-.08,12.06,28.92-18.04,64.07-32.81,91.7-52.31C321.99,132.42,378.66,50.66,508.86,28.45c10.55-1.8,67.53-8.58,71.59-2.67l.88,8.11c-68.03,9.9-134.01,35.31-189.99,75.03,9.81.42,18.48-1.76,28.75-.76,17.08,1.66,31.99,10.64,46.99,17.98,5.84,9.23-18.23,19.83-24.64,21.87-22.6,7.21-43.39,5.19-65.07-3.14-3.99-1.53-7.82-6.04-11.43-6.59-21.09-3.23-51.07,33.64-64.6,47.61,112-22.46,227.1-23.58,336.66,11.53,17.54-11.53,33.81-25.05,51.5-36.34,24.24-15.47,73.89-35.88,84.85-63.25,1.25-3.11-1.62-9.98-1.17-14.94,4.26-46.95,37.62-72.71,81.3-82.89l3.91,1.88c4.7,4.73-1.53,24.06-3.64,30.45-4.68,14.15-15.27,33.49-26.37,43.63-11.04,10.08-29.06,12.36-31.03,27.95,83.38-33.03,167.95-41.1,255.62-20.63,18.54,4.33,59.9,21.22,74.74,20.17,16.25-1.15,37.89-11.89,51.61-20.54-7.3-.63-23.97,10.24-30.06,6.11-6.82-4.62,10.05-27.06,14.13-32.04,15.47-18.89,38.17-33.21,61.51-40.49,49.24-15.38,55.73-2.05,30.01,40.01-20.98,34.31-57.23,52.63-95.57,61.45,6.79,5.72,31.15,19.54,39.18,20,2.27.13,4.18-.47,5.97-1.85,56.6-41.48,118.93-80.81,185.31-104.72,8.66-3.12,43.19-15.46,49.48-12.5,5.89,2.77,4.4,6.47-.05,9.94-10.56,8.21-38.56,17.93-52.52,25.47-45.35,24.49-110.7,65.25-149.21,98.79-2.27,1.97-4.93,3.08-4.15,6.82l227.05,144.01c29.17-15.41,35.49-50.9,49.57-78.36,8.1-15.79,24.25-45.85,36.29-57.71,12.73-12.54,22.5-20.91,26.9,1.3,4,20.2-.91,38.72-11.47,56.14-4.66,7.69-11.14,20.33-21.43,15.2l-1.89,1.39c-.15,2.36-6.13,13.95-.06,12.05,6.51-2.04,23.38-11.74,30.38-15.63,69.21-38.39,115.91-87.6,177.74-134.26,65.47-49.4,142.29-88.35,226.91-78.05l-.87,6.09c-65.46,13.57-126.83,37.68-181.11,76.89,9.59.02,19.22-1.94,28.97-.99,9.22.89,46.35,12.56,46.33,22.97-17.21,23.57-59,25.44-84.7,15.39-4.66-1.82-10.25-7.42-14.02-8.02-20.28-3.26-49.34,34.47-62.59,47.62,107.73-22.49,217.44-23.16,322.67,11.52,20.25-14.43,40.49-29.01,61.49-42.35s47.37-22.12,63.8-42.2c17.25-21.09,6.47-27.48,13.44-50.56,6.92-22.92,24.81-39.47,45.26-50.74,9.4-5.19,38.63-21.15,37.26-.95-1.35,19.76-18.54,55.54-33.87,68.34-9.71,8.11-28.23,10.54-27.03,24.98,64.89-25.38,135.95-38.23,205.69-29.74,19.41,2.36,42.68,7.42,61.7,12.3,37.35,9.58,51.27,24.48,91.57,8.41,7.01-2.79,13.68-10.02,21.99-11.02.41-3.75-4.08-1.68-6.03-1.03-8.09,2.69-15.71,7.11-24.67,7.19-9.02-1.81,8.83-28.09,11.88-31.97,16.47-21.02,44.59-37.31,70.43-43.57,37.21-9.02,45.18-1.99,27.5,33.49-19.72,39.55-60.18,59.12-101.09,69.93-1.86,2.4,35.8,19.84,39.18,20.02,1.71.09,3.27-.03,4.71-1.06,56.62-41.66,118.42-81.31,185.06-105.02,7.96-2.83,44.33-15.49,49.75-13.8,3.41,1.06,4.52,7.17,3.01,9.6-1.68,2.7-49.23,23.6-57.07,27.89-40.32,22.05-115.9,67.25-147.62,98.38-1.94,1.9-3.8,2.58-3.04,5.93l225.3,143.62c30.18-11.26,30.1-46.02,46.69-69.59v134l-35.18-16.03c-5.04-.26-18.47,8.94-20.82,14.01,20.92-2.21,38.12,9.48,56,18.02v60c-14-6.46-54.15-26.94-55.4-43.33-.18-2.32,1.26-4.4,1.45-6.66,2.06-1.51,14.38,5.67,15.94.01-17.1-5.66-39.1-8.27-57.03-6.07-9.75,1.19-34.5,15.22-46.46,19.54-21.74,7.86-45.35,13.81-68.12,17.88-75.4,13.46-149.29,2.64-222.37-17.35-2.55,2.06,36.13,43.44,37.17,53.84,1.41,14.08-36.57-1.18-43.81-6.22-22.85-15.9-19.33-34.37-32.47-51.53-9.44-12.33-61.65-25.86-79.39-32.61-84.29-32.07-165.02-71.55-248.48-105.52l35.08,42.92c46.31,14.4,78.65,30.89,94.43,79.57,5.85,18.05,12.06,43.03,7.23,61.27-6.21,3.9-52.09-19.12-60.36-24.14-38.01-23.05-58.07-56.87-65.63-100.37l-70.97-79.34c-3.7-.38-28.33,19.73-34.16,23.73-30.07,20.64-61.47,40.87-93.29,58.71-25.88,14.51-53.86,29.3-81.34,39.68,5.18,6.61,16.97,5.55,24.89,8.09,18.93,6.08,35.92,18.11,49.91,32.09,3.09,3.09,18.99,21.26,20.2,23.82,6.85,14.51-24.48,10.58-33.73,9.72-21.26-1.98-56.43-15.2-67.37-34.62-2.86-5.08-1.21-11.87-2.08-12.93-.77-.93-20.35-5.29-23.36-5.62-20.61-2.24-40.39,8.23-60.43,12.45-75.8,15.95-153.76-.08-223.37-30.67-7.63-3.35-33.92-18.91-39.53-18.37-3.94.38-16.72,9.98-19.12,14,39.51.08,78.36,30.72,91.55,67.47,5.7,15.89,7.86,20.61-11.66,17.65-18.69-2.84-68.57-25.81-76.99-42.98-1.94-3.96-6.17-14.1,1.66-13.77,3.44.14,13.44,6.57,15.43,1.68-17.38-7.12-40.25-10.37-59.03-8.07-9.34,1.14-31.35,13.55-42.46,17.54-73.17,26.33-136.23,31.26-213.21,20.22-28.1-4.03-55.85-10.74-83.28-17.7,3.21,12.43,43.5,46.23,35.13,58.11-5.5,7.81-38.69-8.02-45.18-13.08-20.81-16.2-18.85-46.82-38.54-57.46-18-9.73-54.52-17.99-75.91-26.09-82.94-31.39-162.28-70.43-244.48-103.52l34,42c39.72,15.15,73.45,26.58,91.04,68.96,4.28,10.31,19.87,67.33,11.75,72.88-43.87-9.81-93.37-36.9-112.81-79.82-5.85-12.91-7.93-34.71-13.25-44.75-4-7.55-36.53-42.44-44.72-51.28-4.03-4.35-24.58-25.84-27.98-25.94-38.61,24.74-75.89,51.44-115.71,74.31-29.62,17.01-61.14,34.34-93.35,45.68-.59,4.77-.07,3.19,2.77,4.21,9.25,3.32,19.87,3.2,30.6,7.41,13.01,5.11,32.68,19.51,42.63,29.37,4.53,4.49,27.59,29.14,16.71,32.69-4.15,1.35-24.03.73-29.66.27-24.02-1.97-53.71-13.8-67.89-34.09-2.66-3.81-4.28-12.2-5.04-12.84-3.31-2.78-18.74-5.96-23.64-6.47-21.16-2.22-31.79,5.79-50.8,10.09-92.3,20.86-188.56,1.72-271.65-40.65v-74ZM689.33,213.89c56.38,17.27,109.96,53.07,166.46,68.55,124.1,33.99,223.05-48.37,313.49-119.53-83.87-44.74-176.96-71.57-272.37-52.41-61.48,12.34-147.52,54.42-197.37,92.63-2.24,1.72-12.43,7.82-10.21,10.76ZM2077.32,213.89c16.91,5.17,33.67,12.17,49.93,19.09,91.65,38.97,146.96,79.66,251.99,43.86,67.18-22.9,121.56-70.47,176.04-113.92-42.55-24.37-91.2-43.19-139.54-52.42-105.42-20.12-189.01,9.64-278.25,62.58-4.39,2.6-62.77,38.26-60.16,40.81ZM1429.31,329.87l-2.1-4.85c-74.34-48.65-146.96-100.26-224.93-143.09-77.14,62.47-156.15,132.05-258.97,144.97,73.36,31.29,155.45,60.01,235.27,68.75,89.31,9.78,176.03-19.02,250.74-65.79ZM2817.32,325.94l-227.05-144.01c-76.72,62.46-156.79,131.93-258.97,144.97,49.89,21.5,101.38,40.95,154.38,53.64,90.04,21.55,160.93,25.27,248.67-8.6,6.96-2.69,87.1-39.9,82.96-46ZM593.32,227.93c-93.1-27.2-196.21-25.2-290.38-3.4-65.6,15.19-119.02,44.84-174.68,81.32-3.27,2.14-34.29,22.2-32.94,24.03,19.02,6.66,36.58,16.51,55.5,23.52,80.2,29.73,159.56,29.45,239.53-1.46,5.97-2.31,20.87-7.4,24.88-11.12,10.53-9.78,8.87-47.23,17.72-64.28,11.03-21.23,34.89-37.38,57.28-44.72,5.75-1.89,17.49-6.96,20.85-.61,3.05,9.21-19.72,51.71-26.94,60.53-10.74,13.12-22.44,15.65-32.89,25.11-2.51,2.27-7.47,7.32-.98,7.03,49.83-28.49,98.26-60.48,143.03-95.96ZM1985.32,227.93c-112.18-31.94-247.82-25.82-354.71,22.27-41.14,18.5-89.28,49.53-126.68,75.25-1.76,1.21-3.7-.32-2.6,4.43,22.63,8.45,44.06,20.2,66.96,28.07,53.2,18.26,105.74,22.14,161.1,11.03,27.56-5.53,53.58-17.12,79.47-27.53,10.49-21.68,5.89-44.68,16.81-66.19,7.68-15.13,23.25-28.22,38.3-35.7,6.05-3.01,41.68-18.84,40.49-5.52-.96,10.81-18.9,46.51-26.3,55.71-11.44,14.21-23.39,16.93-34.89,27.11-1.6,1.41-6.1,4.95-2.96,7.04,50.99-27.62,98.89-60.91,145.01-95.97Z"/><path d="M77.32,373.91c32.51,9.32,59.54,44.81,62.01,78.01-22.17.47-42.08-11.9-62.01-20.01v-58Z"/><path d="M2893.32,153.91c-3.72,2.62-3.42,7.5-5.98,11.03-10.56,14.6-48.36,19.3-48.23-4.06.11-19.22,43.08-30.64,51.21-10.98l2.99-7.99v12Z"/><path d="M77.32,139.91c7.13-.37,14.24-10.47,19.94-3.02-3.49,8.84-9.12,18.29-19.94,19.02v-16Z"/><polygon points="2893.32 105.91 2893.32 117.91 2881.31 117.92 2881.29 107.06 2893.32 105.91"/><polygon points="77.32 105.91 89.39 111.01 88.15 116.08 77.32 117.91 77.32 105.91"/><path d="M2027.34,107.93c.01,3.62,8.6,2.13,10.96,1.95,10.4-.8,68.7-12.31,73.04-7.97.32,13.68-14.99,26.01-25.35,33.65-21.84,16.11-59.99,32.13-86.06,18.74-11.54-5.93-15.71-17.15-10.13-28.94,2.85-6.01,8.21-6.94,11.52-11.43-24.33-6.07-26.94-27.5-6.98-42.02,23.69-17.22,68.33-11.18,93.7.28,10.72,4.84,30.46,13.97,9.35,20.77-21.59,6.95-48.38,5.8-70.05,14.97Z"/><path d="M237.32,95.89c21.33-3.69,41.94-23.41,61.55-29.59,3.82-1.2,6.27-2.3,10.25-.2,3.19,36.08-58,100.44-93.64,80.65-15.3-8.5-11.89-25.14-2.16-36.82-39.82.53-37.5-33.44-8.68-51.7,22.85-14.47,70.62-25.88,92.57-7.09,1.57,9.2-53.1,35.84-59.89,44.75Z"/><path d="M633.34,109.93c-.43,3.72,4.21,1.66,6.4,1.41,19.45-2.21,41.39-8.31,60.61-9.4,25.27-1.44,25.44,3.4,9.03,21.03-20.22,21.74-67.77,45.81-96.75,32.63-20.04-9.12-18.41-28.29-3.31-41.67-23.81-7.96-24.76-27.61-4.99-42.01,19.31-14.06,57.46-12.13,79.42-5.44,7.31,2.23,32.55,11.93,31.72,20.41-.21,4.32-3.48,4.51-6.51,5.67-21.71,8.25-53.49,5.96-75.63,17.39Z"/><path d="M1641.32,97.89l69.37-33.7c8.37-.85,3.57,15.95,2.17,20.26-9.19,28.41-48.5,68.34-80.54,65.55-14.99-1.3-25.42-15.15-19.49-29.6,1.62-3.94,7.04-5.65,6.47-10.49-37.42-.19-38.44-28.71-11.82-48.84,21.63-16.35,73.81-29.77,95.72-9.94,1.61,9.45-55.75,37.3-61.9,46.75Z"/><path d="M2760.32,114.93c10.44-.02,18.66,8.87,27.23,13.75,8.53,4.86,14.8,3.34,21.43,12.57,5.71,7.94,7.99,17.1,5.4,26.73-.8,2.98-16.92,33.01-19.39,36.59-6.94,10.04-17.95,15.05-30.07,10.85-18.11-6.28-11.45-26.95-14.96-41.15-4.31-17.44-27.72-33.25-8.72-51.46,4.19-4.02,13.32-7.88,19.09-7.89Z"/><path d="M1370.59,114.54c10.82-.66,21.28,9.84,30.07,15.02,4.73,2.79,10.78,3.44,15.37,6.63,10.81,7.53,14.32,23.05,9.73,35.16-1.21,3.19-17.24,31.29-19.58,34.43-7.27,9.78-17.1,12.9-28.98,9.23-16.02-4.95-10.76-30.27-15.77-44.22s-17.08-18.73-14-37.77c1.5-9.25,14.39-17.94,23.15-18.48Z"/><path d="M1491.35,111.89l2.09-5.83c8.46-.83,18.14-.3,23.85,6.85-6.03,6.57-16.24,6.42-23.94,2.98.12,21.27-46.77,34.46-53.16,14.11-7.41-23.58,42.32-41.08,51.16-18.1Z"/><path d="M1505.68,154.4c-1.65,1.59-2.94,8.37-6.53,12.33-14.7,16.2-54.95,13.96-46.92-10.93,4.65-14.41,38.31-20.63,50.13-10.47l19.93-11.43,2.8,4.71c-2.73,7.22-8.78,11.18-14.74,15.45-1.6,1.15-4.34.03-4.66.34Z"/><path d="M2829.84,135.4c-1.77-1.89-2.46-5.93-2.61-8.53-1.77-31.76,67.85-35.23,49.66-.38-6.28,12.04-37.84,18.75-47.05,8.91Z"/><path d="M1404.01,94.6c2.72-2.83,12.23-7.59,16.21-8.78,37.84-11.35,26.53,41.51-9.76,35.99-13.88-2.11-14.76-18.56-6.44-27.21Z"/><path d="M2854.73,188.47c4.92,5.96,3.25,16.51-2.69,21.17-21.38,16.76-60.05-6.74-34.66-24.64,8.51-5.99,30.92-4.3,37.34,3.47Z"/><path d="M1436.74,182.33c11.97-2.7,29.66-.14,34.63,12.69,2.8,26.41-52.69,24.25-49.02,2.68.94-5.54,8.68-14.09,14.39-15.37Z"/><path d="M2812.85,84.3c32.65-4.63,13.39,50.01-19.03,36.1-21.9-9.4,3.03-33.83,19.03-36.1Z"/><path d="M2883.31,183.92c3.21,7.23-17.52,20.8-19.98,17.98l.25-13.73,19.73-4.25Z"/><path d="M1495.31,183.92c1.58,10.09-8.48,17.03-17.87,15.88-5.65-13.76,6.27-16.02,17.87-15.88Z"/><path d="M1467.31,85.94c3.29,9.12-17.14,13.94-19.74,9.7l-.26-11.73,20,2.04Z"/><path d="M2855.31,85.93c3.19,4.53-21.94,22.41-22.04,1.15,6.39-5.12,14.94-3.33,22.04-1.15Z"/><path d="M2087.32,373.9l-80-21.98c7.41,9.91,72.13,27.2,73.88,33.23,3.3,11.39-33.75,18.12-40.91,18.72-21.8,1.82-46.59-1.03-65.57-12.37-27.18-16.24-20.21-39.63,8.6-45.62-13.57-14.2-12.1-37.08,9.45-41.53,30.44-6.28,72.08,22.63,87.39,47.71,4.05,6.63,8.29,13.69,7.16,21.83Z"/><path d="M617.33,351.93l71.99,30.98c6.57,6.98-4.65,11.58-10.03,13.97-24.69,10.94-63.63,9.21-88.01-1.92-31.53-14.39-32.41-40.4,2.04-49.07-27.08-41.47,16.76-48.88,48.56-35.53,14.42,6.06,36.96,25.2,45.91,38.09,29.35,42.26-14.39,18.54-32.89,12.89-12.29-3.76-24.9-7.15-37.56-9.41Z"/><path d="M1174.73,258.34c21.74-5.01,28.61,12.26,41.53,25.62,7.71,7.97,16.34,8.53,17.13,23.03,1.07,19.57-11.4,20.3-22.13,29.87-13.09,11.68-16.4,27.78-39.59,21.68-31.81-8.38-9.14-35.56-8.26-51.69.74-13.66-13.49-42.78,11.31-48.5Z"/><path d="M1321.31,319.92c.55,12.55-12.83,12.54-20.52,16.46-4.18,2.13-6.98,5.95-12.04,7.96-14.34,5.72-41.59,3.18-43.42-15.64-2.15-22.11,30.64-22.28,44.69-14.51,3.23,1.79,5.88,6.71,8.68,7.4,3.99.99,16.65-3.93,22.6-1.68Z"/><path d="M1297.61,296.14c-.9.5-2.94,6.38-9.91,9.14-44.52,17.66-58.45-44.18-3.83-32.92,8.93,1.84,11.83,9.16,17.59,12.4,6.29,3.54,15.04,3.17,19.85,12.18-2.28,12.47-20.51-2.6-23.69-.81Z"/><path d="M1259.35,359.9c6.66-5.24,14.12-6.32,21.96-2.98l1.05,5.02c-7.31,11.44-15.92,5.83-24.11,6.87-2.4.3-5.27,4.19-10.03,4.99-15.74,2.64-44.41-8.06-34.63-26.63s42.94-5.96,45.76,12.73Z"/><path d="M1282.7,256.48c8.77,9.73-19.22,11.55-19.42,1.44h-1.94c-2.68,16.17-29.07,28.05-41.96,16.93-19.26-16.62,12.42-36.99,34.41-28.41,2.9,1.13,4.73,4.62,6.92,5.16,5.29,1.3,14.12-3.86,21.99,4.88Z"/><path d="M864,154.59c3.55-3.67,13.82-7.81,18.9-8.26,16.87-1.49,22.4,15.09,33.42,23.58,7.3,5.63,20.02,8.28,22.57,19.42,5.2,22.68-6.65,26.87-18.6,40.56-11.91,13.63-24.52,35.42-46.8,22.86-20.85-11.75-6.95-33.38-8.1-49.79s-17.09-32.15-1.39-48.37Z"/><path d="M1033.09,200.12c3.19,5.72-.17,10.02-4.75,13.82-2.09,1.73-34.45,19.1-36.47,19.51-16.19,3.35-44.83-2.67-40.15-24.09,3.1-14.19,28.09-15.05,39.72-12.56,6.96,1.49,13.55,8.6,15.17,8.88s18.59-10.3,26.49-5.56Z"/><path d="M970.78,154.37c17.31-3.57,19.92,2.33,32.52,6.57,11.15,3.75,22.27,2.11,27.92,16-7.41,9.65-17.34.56-26.49,3.37-7.68,2.36-12.23,12.27-29.02,13.15-33.64,1.77-31.01-33.72-4.93-39.09Z"/><path d="M934.77,226.37c20.37-4.17,23.05,9.95,33.97,13.11,5.81,1.68,46.86-1.9,20.47,15.33-8.54,5.58-14.19,3.57-22.42,5.58-10.72,2.62-11.59,7.18-25.58,4.6-25.84-4.77-30.64-33.67-6.46-38.62Z"/><path d="M991.13,147.73c-2.01,3.03-18.82,1.48-23.92,3.07-9.73,3.04-13.21,16.92-30.9,17.27-34.09.68-26.78-40.45,8.01-40.31,8.1.03,13.37,5.13,18.24,5.56,2.94.26,6.28-1.71,9.67-1.5,6.59.39,24.25,7.83,18.89,15.91Z"/><path d="M2562.73,258.34c21.31-4.91,27.02,10.73,39.53,23.62,8.35,8.6,18,9.79,19.09,24.99,1.62,22.54-12.27,20.91-24.12,31.88-12.9,11.94-22.84,32.91-45.8,15.95-19.05-14.07-.55-32.55-.03-47.93.47-13.64-13.31-42.83,11.32-48.51Z"/><path d="M2648.78,310.37c8.55-1.74,23.58-.45,31.28,3.8,3.19,1.76,5.78,6.72,8.65,7.43,5.04,1.25,17.2-6.18,22.56,1.3-3.94,10.03-14.62,9.56-22.48,13.49-8.09,4.05-11.75,9.96-23.06,11.1-31.8,3.2-43.29-31.74-16.96-37.11Z"/><path d="M2687.88,283.32c4.98,3.95,18.95,3.73,21.13,11.93,3.52,13.25-17.7.43-20.41.95-2.21.43-5.28,5.52-8.73,7.26-11.17,5.65-25.5,6.58-35.54-1.58-25.83-21,16.64-41.67,40.06-23.97,1.72,1.3,2.22,4.4,3.48,5.4Z"/><path d="M2647.5,357.78c8.06-3.35,13.28-3.99,21.84-.9l1.01,5.05c-6.99,12.09-17.47,5.19-23.82,6.41-2.31.45-3.83,4.63-8.25,5.52-14.96,3.03-39.76-3.43-36.87-22.82,3.21-21.56,42.09-11.58,46.08,6.72Z"/><path d="M2649.34,257.91c-.88,23-46.03,29.99-48.05,6.79-1.57-18.08,26.42-23.21,40.49-18.27,2.9,1.01,4.71,4.64,6.92,5.18,4.48,1.1,13.45-4.62,20.6,3.31,9.47,10.49-14.36,12.55-19.96,3Z"/><path d="M2274.67,146.55c12.99-.25,22.57,15.92,31.65,23.36,11.17,9.15,22.27,6.96,23.13,26.98.9,21.25-8.91,19.47-18.94,31.21-11.45,13.4-21.29,38.12-45.93,25.56-22.07-11.26-8.03-33.8-9.19-50.69-.94-13.56-12.42-22.26-7.17-39.16,2.64-8.49,17.93-17.09,26.45-17.25Z"/><path d="M2420.7,213.28c-4.49,4-16.87,7.37-22.79,10.23-4.5,2.17-7.8,7.11-13.13,8.87-14.09,4.64-42.82,1.13-43.6-17.51-.85-20.34,31.73-21.94,46.14-15.97,3.5,1.45,7.77,6.34,8.97,6.43,2.35.18,29.4-13.05,29.07-.5-.04,1.65-3.3,7.23-4.66,8.44Z"/><path d="M2421.32,179.89c-8.55,4.34-17.82-1.14-24.89-.03-6.91,1.09-15.47,14.02-34.14,13.65-35.84-.72-25.45-44.44,14.08-39.64,3.64.44,34.63,12.24,37.6,14.38,4.19,3.02,8.3,5.66,7.35,11.64Z"/><path d="M2381.31,147.89c-7.62,3.82-17.61.37-24.59,2.43-8.05,2.38-14.38,17.87-32.42,17.77-32.27-.18-23.86-38.54,8.09-40.26,9.19-.5,12.81,4.1,18.7,4.98,3.35.5,7-1.33,10.96-.82,7.79,1,20.24,6.53,19.26,15.9Z"/><path d="M2314.02,232.61c9.37-9.19,22.33-6.81,32.73-1.12,3.82,2.1,6.99,7.12,9.98,8.02,9.87,2.96,26.66-5.41,30.07,7.45-6.83,12.88-17.97,8.79-27.99,11.43-4.14,1.09-8.31,5.92-14.96,7.04-20.55,3.46-48.22-14.78-29.83-32.82Z"/><path d="M273.33,303.93l63.09,33.96v6.03c-25.06,19.24-89.33,13.82-108.81-11.3-13.64-17.59.18-35.51,19.7-36.72v-2.96c-15.11-11.97-7.08-37.87,11.11-40.92,33.62-5.65,73.41,29.7,83.83,59.95,3.15,9.13,5.8,15.92-7.45,13.52-17.94-3.25-41.06-21.39-61.47-21.56Z"/><path d="M1751.32,325.9c-4.54,4.49-64.47-24.91-75.98-23.98l63.37,31.6c14.92,8.02,1.01,14.8-8.94,17.83-26.91,8.19-62.63,5.43-86.28-10.61-24.6-16.69-17.13-40.31,9.82-44.84-1.44-7.05-7.8-11.03-8.13-19.04s8.09-21.62,16.04-24.06c35.42-10.88,89.64,36.6,90.1,73.11Z"/></svg>